{
  "accessors": [
    {
      "bufferView": 2,
      "componentType": 5126,
      "count": 65532,
      "max": [
        41.788543701171875,
        84.2432632446289,
        27.583532333374023
      ],
      "min": [
        -31.010761260986328,
        -0.965176522731781,
        -27.0706729888916
      ],
      "type": "VEC3"
    },
    {
      "bufferView": 2,
      "byteOffset": 786384,
      "componentType": 5126,
      "count": 65532,
      "max": [
        0.9999950528144836,
        0.999997615814209,
        0.9999814629554749
      ],
      "min": [
        -0.9999997615814209,
        -0.9999999403953552,
        -0.9999868273735046
      ],
      "type": "VEC3"
    },
    {
      "bufferView": 3,
      "componentType": 5126,
      "count": 65532,
      "max": [
        0.9999940395355225,
        0.999976396560669,
        0.9999993443489075,
        1.0
      ],
      "min": [
        -0.9999909400939941,
        -0.9999740123748779,
        -0.9999881982803345,
        -1.0
      ],
      "type": "VEC4"
    },
    {
      "bufferView": 1,
      "componentType": 5126,
      "count": 65532,
      "max": [
        3.2526559829711914,
        81.14305114746094
      ],
      "min": [
        -1.2445629835128784,
        -0.9926738739013672
      ],
      "type": "VEC2"
    },
    {
      "bufferView": 1,
      "byteOffset": 524256,
      "componentType": 5126,
      "count": 65532,
      "max": [
        3.2526559829711914,
        81.14305114746094
      ],
      "min": [
        -1.2445629835128784,
        -0.9926738739013672
      ],
      "type": "VEC2"
    },
    {
      "bufferView": 1,
      "byteOffset": 1048512,
      "componentType": 5126,
      "count": 65532,
      "max": [
        1.0,
        1.0
      ],
      "min": [
        0.0,
        1.0
      ],
      "type": "VEC2"
    },
    {
      "bufferView": 0,
      "componentType": 5125,
      "count": 292566,
      "type": "SCALAR"
    },
    {
      "bufferView": 2,
      "byteOffset": 1572768,
      "componentType": 5126,
      "count": 65532,
      "max": [
        39.21266555786133,
        83.52667999267578,
        36.039222717285156
      ],
      "min": [
        -29.097593307495117,
        -6.454432487487793,
        -38.06993865966797
      ],
      "type": "VEC3"
    },
    {
      "bufferView": 2,
      "byteOffset": 2359152,
      "componentType": 5126,
      "count": 65532,
      "max": [
        0.9999971985816956,
        1.0,
        0.9999869465827942
      ],
      "min": [
        -0.9999945163726807,
        -0.9999926090240479,
        -0.999984622001648
      ],
      "type": "VEC3"
    },
    {
      "bufferView": 3,
      "byteOffset": 1048512,
      "componentType": 5126,
      "count": 65532,
      "max": [
        0.9999871253967285,
        0.9999974966049194,
        1.0,
        1.0
      ],
      "min": [
        -0.9999951720237732,
        -0.9999983310699463,
        -0.9999994039535522,
        -1.0
      ],
      "type": "VEC4"
    },
    {
      "bufferView": 1,
      "byteOffset": 1572768,
      "componentType": 5126,
      "count": 65532,
      "max": [
        2.9510440826416016,
        82.13978576660156
      ],
      "min": [
        -0.9935972094535828,
        -1.972010612487793
      ],
      "type": "VEC2"
    },
    {
      "bufferView": 1,
      "byteOffset": 2097024,
      "componentType": 5126,
      "count": 65532,
      "max": [
        2.9510440826416016,
        82.13978576660156
      ],
      "min": [
        -0.9935972094535828,
        -1.972010612487793
      ],
      "type": "VEC2"
    },
    {
      "bufferView": 1,
      "byteOffset": 2621280,
      "componentType": 5126,
      "count": 65532,
      "max": [
        1.0,
        1.0
      ],
      "min": [
        1.0,
        1.0
      ],
      "type": "VEC2"
    },
    {
      "bufferView": 0,
      "byteOffset": 1170264,
      "componentType": 5125,
      "count": 321405,
      "type": "SCALAR"
    },
    {
      "bufferView": 2,
      "byteOffset": 3145536,
      "componentType": 5126,
      "count": 18214,
      "max": [
        13.045480728149414,
        88.14989471435547,
        34.266387939453125
      ],
      "min": [
        -22.861482620239258,
        26.808626174926758,
        -28.201032638549805
      ],
      "type": "VEC3"
    },
    {
      "bufferView": 2,
      "byteOffset": 3364104,
      "componentType": 5126,
      "count": 18214,
      "max": [
        0.9999219179153442,
        0.9999594688415527,
        0.9999410510063171
      ],
      "min": [
        -0.999926745891571,
        -0.9998607039451599,
        -0.99998939037323
      ],
      "type": "VEC3"
    },
    {
      "bufferView": 3,
      "byteOffset": 2097024,
      "componentType": 5126,
      "count": 18214,
      "max": [
        0.9999935626983643,
        0.9999921917915344,
        0.9997996687889099,
        1.0
      ],
      "min": [
        -0.9999829530715942,
        -0.9999911785125732,
        -0.9999493956565857,
        1.0
      ],
      "type": "VEC4"
    },
    {
      "bufferView": 1,
      "byteOffset": 3145536,
      "componentType": 5126,
      "count": 18214,
      "max": [
        2.8918399810791016,
        90.72528076171875
      ],
      "min": [
        -0.9935972094535828,
        -0.9959878921508789
      ],
      "type": "VEC2"
    },
    {
      "bufferView": 1,
      "byteOffset": 3291248,
      "componentType": 5126,
      "count": 18214,
      "max": [
        2.8918399810791016,
        90.72528076171875
      ],
      "min": [
        -0.9935972094535828,
        -0.9959878921508789
      ],
      "type": "VEC2"
    },
    {
      "bufferView": 1,
      "byteOffset": 3436960,
      "componentType": 5126,
      "count": 18214,
      "max": [
        1.0,
        1.0
      ],
      "min": [
        1.0,
        1.0
      ],
      "type": "VEC2"
    },
    {
      "bufferView": 0,
      "byteOffset": 2455884,
      "componentType": 5125,
      "count": 82635,
      "type": "SCALAR"
    },
    {
      "bufferView": 2,
      "byteOffset": 3582672,
      "componentType": 5126,
      "count": 61112,
      "max": [
        42.841941833496094,
        89.18122100830078,
        37.38349151611328
      ],
      "min": [
        -32.04905319213867,
        14.310399055480957,
        -39.013668060302734
      ],
      "type": "VEC3"
    },
    {
      "bufferView": 2,
      "byteOffset": 4316016,
      "componentType": 5126,
      "count": 61112,
      "max": [
        0.996833086013794,
        0.9999803304672241,
        0.9966824650764465
      ],
      "min": [
        -0.9998536109924316,
        -0.1921468824148178,
        -0.9988199472427368
      ],
      "type": "VEC3"
    },
    {
      "bufferView": 3,
      "byteOffset": 2388448,
      "componentType": 5126,
      "count": 61112,
      "max": [
        0.9999939799308777,
        0.9999008774757385,
        0.9999778866767883,
        1.0
      ],
      "min": [
        -0.9999974966049194,
        -0.9657198786735535,
        -0.9999651908874512,
        -1.0
      ],
      "type": "VEC4"
    },
    {
      "bufferView": 1,
      "byteOffset": 3582672,
      "componentType": 5126,
      "count": 61112,
      "max": [
        0.993640661239624,
        0.9332273602485657
      ],
      "min": [
        0.19554851949214935,
        0.04928457736968994
      ],
      "type": "VEC2"
    },
    {
      "bufferView": 1,
      "byteOffset": 4071568,
      "componentType": 5126,
      "count": 61112,
      "max": [
        0.993640661239624,
        0.9332273602485657
      ],
      "min": [
        0.19554851949214935,
        0.04928457736968994
      ],
      "type": "VEC2"
    },
    {
      "bufferView": 1,
      "byteOffset": 4560464,
      "componentType": 5126,
      "count": 61112,
      "max": [
        1.0,
        1.0
      ],
      "min": [
        1.0,
        1.0
      ],
      "type": "VEC2"
    },
    {
      "bufferView": 1,
      "byteOffset": 5049360,
      "componentType": 5126,
      "count": 61112,
      "max": [
        0.993640661239624,
        0.9332273602485657
      ],
      "min": [
        0.19554851949214935,
        0.04928457736968994
      ],
      "type": "VEC2"
    },
    {
      "bufferView": 0,
      "byteOffset": 2786424,
      "componentType": 5125,
      "count": 183336,
      "type": "SCALAR"
    },
    {
      "bufferView": 2,
      "byteOffset": 5049360,
      "componentType": 5126,
      "count": 17457,
      "max": [
        41.03797912597656,
        86.9590072631836,
        35.05514907836914
      ],
      "min": [
        -30.134592056274414,
        17.38189125061035,
        -38.34435272216797
      ],
      "type": "VEC3"
    },
    {
      "bufferView": 2,
      "byteOffset": 5258844,
      "componentType": 5126,
      "count": 17457,
      "max": [
        0.9976260662078857,
        0.9999841451644897,
        0.9962974190711975
      ],
      "min": [
        -0.9994040727615356,
        -0.1962154507637024,
        -0.9985319972038269
      ],
      "type": "VEC3"
    },
    {
      "bufferView": 3,
      "byteOffset": 3366240,
      "componentType": 5126,
      "count": 17457,
      "max": [
        0.9999454021453857,
        0.9990148544311523,
        0.999999463558197,
        1.0
      ],
      "min": [
        -0.9998412132263184,
        -0.8592191338539124,
        -0.9998506307601929,
        -1.0
      ],
      "type": "VEC4"
    },
    {
      "bufferView": 1,
      "byteOffset": 5538256,
      "componentType": 5126,
      "count": 17457,
      "max": [
        0.9939098954200745,
        0.9884287118911743
      ],
      "min": [
        0.20950062572956085,
        0.02862370014190674
      ],
      "type": "VEC2"
    },
    {
      "bufferView": 1,
      "byteOffset": 5677912,
      "componentType": 5126,
      "count": 17457,
      "max": [
        0.9939098954200745,
        0.9884287118911743
      ],
      "min": [
        0.20950062572956085,
        0.02862370014190674
      ],
      "type": "VEC2"
    },
    {
      "bufferView": 1,
      "byteOffset": 5817568,
      "componentType": 5126,
      "count": 17457,
      "max": [
        1.0,
        1.0
      ],
      "min": [
        1.0,
        1.0
      ],
      "type": "VEC2"
    },
    {
      "bufferView": 1,
      "byteOffset": 5957224,
      "componentType": 5126,
      "count": 17457,
      "max": [
        0.9939098954200745,
        0.9884287118911743
      ],
      "min": [
        0.20950062572956085,
        0.02862370014190674
      ],
      "type": "VEC2"
    },
    {
      "bufferView": 0,
      "byteOffset": 3519768,
      "componentType": 5125,
      "count": 52371,
      "type": "SCALAR"
    }
  ],
  "asset": {
    "extras": {
      "author": "ASMA3D (https://sketchfab.com/ASMA3D)",
      "license": "SKETCHFAB Standard (https://sketchfab.com/licenses)",
      "source": "https://sketchfab.com/3d-models/red-maple-16-2f83590213bf4fdfa2512f16ea16f9a5",
      "title": "Red Maple-16"
    },
    "generator": "Sketchfab-11.49.7",
    "version": "2.0"
  },
  "bufferViews": [
    {
      "buffer": 0,
      "byteLength": 3729252,
      "name": "floatBufferViews",
      "target": 34963
    },
    {
      "buffer": 0,
      "byteLength": 6096880,
      "byteOffset": 3729252,
      "byteStride": 8,
      "name": "floatBufferViews",
      "target": 34962
    },
    {
      "buffer": 0,
      "byteLength": 5468328,
      "byteOffset": 9826132,
      "byteStride": 12,
      "name": "floatBufferViews",
      "target": 34962
    },
    {
      "buffer": 0,
      "byteLength": 3645552,
      "byteOffset": 15294460,
      "byteStride": 16,
      "name": "floatBufferViews",
      "target": 34962
    }
  ],
  "buffers": [
    {
      "byteLength": 18940012,
      "uri": "scene.bin"
    }
  ],
  "images": [
    {
      "uri": "textures/b_2_Mat_baseColor.jpeg"
    },
    {
      "uri": "textures/b_2_Mat_normal.png"
    },
    {
      "uri": "textures/Base_color_Leaf_02_Mat_baseColor.png"
    },
    {
      "uri": "textures/Base_color_Leaf_02_Mat_normal.png"
    },
    {
      "uri": "textures/Base_color_leaf_05_Mat_baseColor.png"
    },
    {
      "uri": "textures/Base_color_leaf_05_Mat_normal.png"
    }
  ],
  "materials": [
    {
      "doubleSided": true,
      "name": "b_2_Mat",
      "normalTexture": {
        "index": 1,
        "texCoord": 1
      },
      "pbrMetallicRoughness": {
        "baseColorTexture": {
          "index": 0
        },
        "metallicFactor": 0.0,
        "roughnessFactor": 0.9577051494623774
      }
    },
    {
      "alphaMode": "BLEND",
      "doubleSided": true,
      "name": "Base_color_Leaf_02_Mat",
      "normalTexture": {
        "index": 3
      },
      "pbrMetallicRoughness": {
        "baseColorTexture": {
          "index": 2
        },
        "metallicFactor": 0.0,
        "roughnessFactor": 0.9577051494623774
      }
    },
    {
      "alphaMode": "BLEND",
      "doubleSided": true,
      "name": "Base_color_leaf_05_Mat",
      "normalTexture": {
        "index": 5
      },
      "pbrMetallicRoughness": {
        "baseColorTexture": {
          "index": 4
        },
        "metallicFactor": 0.0,
        "roughnessFactor": 0.9577051494623774
      }
    }
  ],
  "meshes": [
    {
      "name": "Red_Maple_16_b_2_Mat_0",
      "primitives": [
        {
          "attributes": {
            "NORMAL": 1,
            "POSITION": 0,
            "TANGENT": 2,
            "TEXCOORD_0": 3,
            "TEXCOORD_1": 4,
            "TEXCOORD_2": 5
          },
          "indices": 6,
          "material": 0,
          "mode": 4
        }
      ]
    },
    {
      "name": "Red_Maple_16_b_2_Mat_0",
      "primitives": [
        {
          "attributes": {
            "NORMAL": 8,
            "POSITION": 7,
            "TANGENT": 9,
            "TEXCOORD_0": 10,
            "TEXCOORD_1": 11,
            "TEXCOORD_2": 12
          },
          "indices": 13,
          "material": 0,
          "mode": 4
        }
      ]
    },
    {
      "name": "Red_Maple_16_b_2_Mat_0",
      "primitives": [
        {
          "attributes": {
            "NORMAL": 15,
            "POSITION": 14,
            "TANGENT": 16,
            "TEXCOORD_0": 17,
            "TEXCOORD_1": 18,
            "TEXCOORD_2": 19
          },
          "indices": 20,
          "material": 0,
          "mode": 4
        }
      ]
    },
    {
      "name": "Red_Maple_16_Base_color_Leaf_02_Mat_0",
      "primitives": [
        {
          "attributes": {
            "NORMAL": 22,
            "POSITION": 21,
            "TANGENT": 23,
            "TEXCOORD_0": 24,
            "TEXCOORD_1": 25,
            "TEXCOORD_2": 26,
            "TEXCOORD_3": 27
          },
          "indices": 28,
          "material": 1,
          "mode": 4
        }
      ]
    },
    {
      "name": "Red_Maple_16_Base_color_leaf_05_Mat_0",
      "primitives": [
        {
          "attributes": {
            "NORMAL": 30,
            "POSITION": 29,
            "TANGENT": 31,
            "TEXCOORD_0": 32,
            "TEXCOORD_1": 33,
            "TEXCOORD_2": 34,
            "TEXCOORD_3": 35
          },
          "indices": 36,
          "material": 2,
          "mode": 4
        }
      ]
    }
  ],
  "nodes": [
    {
      "children": [
        1
      ],
      "matrix": [
        1.0,
        0.0,
        0.0,
        0.0,
        0.0,
        2.220446049250313e-16,
        -1.0,
        0.0,
        0.0,
        1.0,
        2.220446049250313e-16,
        0.0,
        0.0,
        0.0,
        0.0,
        1.0
      ],
      "name": "Sketchfab_model"
    },
    {
      "children": [
        2
      ],
      "matrix": [
        0.009999999776482582,
        0.0,
        0.0,
        0.0,
        0.0,
        0.0,
        0.009999999776482582,
        0.0,
        0.0,
        -0.009999999776482582,
        0.0,
        0.0,
        0.0,
        0.0,
        0.0,
        1.0
      ],
      "name": "Red Maple-16.fbx"
    },
    {
      "children": [
        3,
        5
      ],
      "name": "RootNode"
    },
    {
      "children": [
        4
      ],
      "matrix": [
        -0.6667539179723689,
        -0.3329841223496841,
        -0.6667539179723695,
        0.0,
        -0.23545533094091287,
        0.9429324335619231,
        -0.23545533094091242,
        0.0,
        0.7071067811865474,
        4.0245584642661925e-16,
        -0.707106781186547,
        0.0,
        97.1377944946289,
        81.0646743774414,
        92.82999420166016,
        1.0
      ],
      "name": "CINEMA_4D_Editor"
    },
    {
      "name": "Object_4"
    },
    {
      "children": [
        6,
        7,
        8,
        9,
        10
      ],
      "name": "Red_Maple_16"
    },
    {
      "mesh": 0,
      "name": "Red_Maple_16_b_2_Mat_0"
    },
    {
      "mesh": 1,
      "name": "Red_Maple_16_b_2_Mat_0"
    },
    {
      "mesh": 2,
      "name": "Red_Maple_16_b_2_Mat_0"
    },
    {
      "mesh": 3,
      "name": "Red_Maple_16_Base_color_Leaf_02_Mat_0"
    },
    {
      "mesh": 4,
      "name": "Red_Maple_16_Base_color_leaf_05_Mat_0"
    }
  ],
  "samplers": [
    {
      "magFilter": 9729,
      "minFilter": 9987,
      "wrapS": 10497,
      "wrapT": 10497
    }
  ],
  "scene": 0,
  "scenes": [
    {
      "name": "Sketchfab_Scene",
      "nodes": [
        0
      ]
    }
  ],
  "textures": [
    {
      "sampler": 0,
      "source": 0
    },
    {
      "sampler": 0,
      "source": 1
    },
    {
      "sampler": 0,
      "source": 2
    },
    {
      "sampler": 0,
      "source": 3
    },
    {
      "sampler": 0,
      "source": 4
    },
    {
      "sampler": 0,
      "source": 5
    }
  ]
}
