{
  "accessors": [
    {
      "bufferView": 1,
      "componentType": 5126,
      "count": 65532,
      "max": [
        0.62345999479293823,
        1.8792999982833862,
        1.3492799997329712
      ],
      "min": [
        -1.6953400373458862,
        0.27662000060081482,
        -1.7016299962997437
      ],
      "type": "VEC3"
    },
    {
      "bufferView": 1,
      "byteOffset": 786384,
      "componentType": 5126,
      "count": 65532,
      "max": [
        0.99990928173065186,
        0.99999713897705078,
        0.99977689981460571
      ],
      "min": [
        -0.99991893768310547,
        -0.99997466802597046,
        -0.99990355968475342
      ],
      "type": "VEC3"
    },
    {
      "bufferView": 0,
      "componentType": 5125,
      "count": 90798,
      "max": [
        65531
      ],
      "min": [
        0
      ],
      "type": "SCALAR"
    },
    {
      "bufferView": 1,
      "byteOffset": 1572768,
      "componentType": 5126,
      "count": 65532,
      "max": [
        0.62345999479293823,
        1.8792999982833862,
        1.3492799997329712
      ],
      "min": [
        -1.6953400373458862,
        0.49061998724937439,
        -0.9583200216293335
      ],
      "type": "VEC3"
    },
    {
      "bufferView": 1,
      "byteOffset": 2359152,
      "componentType": 5126,
      "count": 65532,
      "max": [
        0.99985510110855103,
        0.99979323148727417,
        0.9998893141746521
      ],
      "min": [
        -0.99969404935836792,
        -0.99976319074630737,
        -0.99998819828033447
      ],
      "type": "VEC3"
    },
    {
      "bufferView": 0,
      "byteOffset": 363192,
      "componentType": 5125,
      "count": 98298,
      "max": [
        65531
      ],
      "min": [
        0
      ],
      "type": "SCALAR"
    },
    {
      "bufferView": 1,
      "byteOffset": 3145536,
      "componentType": 5126,
      "count": 65532,
      "max": [
        0.176829993724823,
        1.6269299983978271,
        1.0560699701309204
      ],
      "min": [
        -1.4709199666976929,
        0.27662000060081482,
        -1.7016299962997437
      ],
      "type": "VEC3"
    },
    {
      "bufferView": 1,
      "byteOffset": 3931920,
      "componentType": 5126,
      "count": 65532,
      "max": [
        0.99967300891876221,
        0.9998740553855896,
        0.99916201829910278
      ],
      "min": [
        -0.99997252225875854,
        -0.9999660849571228,
        -0.99998927116394043
      ],
      "type": "VEC3"
    },
    {
      "bufferView": 0,
      "byteOffset": 756384,
      "componentType": 5125,
      "count": 98298,
      "max": [
        65531
      ],
      "min": [
        0
      ],
      "type": "SCALAR"
    },
    {
      "bufferView": 1,
      "byteOffset": 4718304,
      "componentType": 5126,
      "count": 18404,
      "max": [
        0.3131600022315979,
        1.1920000314712524,
        0.48471999168395996
      ],
      "min": [
        -1.410539984703064,
        0.43994998931884766,
        -1.0770399570465088
      ],
      "type": "VEC3"
    },
    {
      "bufferView": 1,
      "byteOffset": 4939152,
      "componentType": 5126,
      "count": 18404,
      "max": [
        0.99707299470901489,
        0.99847561120986938,
        0.99947786331176758
      ],
      "min": [
        -0.99843049049377441,
        -0.99300479888916016,
        -0.99991655349731445
      ],
      "type": "VEC3"
    },
    {
      "bufferView": 0,
      "byteOffset": 1149576,
      "componentType": 5125,
      "count": 27606,
      "max": [
        18403
      ],
      "min": [
        0
      ],
      "type": "SCALAR"
    },
    {
      "bufferView": 1,
      "byteOffset": 5160000,
      "componentType": 5126,
      "count": 65532,
      "max": [
        0.50906997919082642,
        1.7941000461578369,
        1.0907299518585205
      ],
      "min": [
        -1.4707100391387939,
        0.33908000588417053,
        -1.4518300294876099
      ],
      "type": "VEC3"
    },
    {
      "bufferView": 1,
      "byteOffset": 5946384,
      "componentType": 5126,
      "count": 65532,
      "max": [
        0.99988538026809692,
        0.99999797344207764,
        0.99999237060546875
      ],
      "min": [
        -0.99991726875305176,
        -0.9999995231628418,
        -0.99997961521148682
      ],
      "type": "VEC3"
    },
    {
      "bufferView": 0,
      "byteOffset": 1260000,
      "componentType": 5125,
      "count": 93798,
      "max": [
        65531
      ],
      "min": [
        0
      ],
      "type": "SCALAR"
    },
    {
      "bufferView": 1,
      "byteOffset": 6732768,
      "componentType": 5126,
      "count": 65532,
      "max": [
        0.61796998977661133,
        1.6690599918365479,
        0.65250998735427856
      ],
      "min": [
        -1.0135999917984009,
        0.38552999496459961,
        -1.4014699459075928
      ],
      "type": "VEC3"
    },
    {
      "bufferView": 1,
      "byteOffset": 7519152,
      "componentType": 5126,
      "count": 65532,
      "max": [
        0.99870491027832031,
        0.99984937906265259,
        0.99991452693939209
      ],
      "min": [
        -0.99997591972351074,
        -0.99744772911071777,
        -0.99934154748916626
      ],
      "type": "VEC3"
    },
    {
      "bufferView": 0,
      "byteOffset": 1635192,
      "componentType": 5125,
      "count": 98298,
      "max": [
        65531
      ],
      "min": [
        0
      ],
      "type": "SCALAR"
    },
    {
      "bufferView": 1,
      "byteOffset": 8305536,
      "componentType": 5126,
      "count": 65532,
      "max": [
        0.52056002616882324,
        1.8694900274276733,
        1.3378299474716187
      ],
      "min": [
        -1.5603499412536621,
        0.57696998119354248,
        -0.72373002767562866
      ],
      "type": "VEC3"
    },
    {
      "bufferView": 1,
      "byteOffset": 9091920,
      "componentType": 5126,
      "count": 65532,
      "max": [
        0.9996715784072876,
        0.99955582618713379,
        0.99987906217575073
      ],
      "min": [
        -0.99986308813095093,
        -0.999725341796875,
        -0.99981415271759033
      ],
      "type": "VEC3"
    },
    {
      "bufferView": 0,
      "byteOffset": 2028384,
      "componentType": 5125,
      "count": 98298,
      "max": [
        65531
      ],
      "min": [
        0
      ],
      "type": "SCALAR"
    },
    {
      "bufferView": 1,
      "byteOffset": 9878304,
      "componentType": 5126,
      "count": 65532,
      "max": [
        -0.70197999477386475,
        1.2913000583648682,
        0.71222001314163208
      ],
      "min": [
        -1.6849000453948975,
        0.60514998435974121,
        -0.5887799859046936
      ],
      "type": "VEC3"
    },
    {
      "bufferView": 1,
      "byteOffset": 10664688,
      "componentType": 5126,
      "count": 65532,
      "max": [
        0.99949663877487183,
        0.99970120191574097,
        0.99951046705245972
      ],
      "min": [
        -0.999866783618927,
        -0.99955916404724121,
        -0.99900311231613159
      ],
      "type": "VEC3"
    },
    {
      "bufferView": 0,
      "byteOffset": 2421576,
      "componentType": 5125,
      "count": 98298,
      "max": [
        65531
      ],
      "min": [
        0
      ],
      "type": "SCALAR"
    },
    {
      "bufferView": 1,
      "byteOffset": 11451072,
      "componentType": 5126,
      "count": 65532,
      "max": [
        0.16721999645233154,
        1.6154999732971191,
        1.0462900400161743
      ],
      "min": [
        -1.259179949760437,
        0.63848000764846802,
        -1.6897799968719482
      ],
      "type": "VEC3"
    },
    {
      "bufferView": 1,
      "byteOffset": 12237456,
      "componentType": 5126,
      "count": 65532,
      "max": [
        0.99952954053878784,
        0.99970215559005737,
        0.99976080656051636
      ],
      "min": [
        -0.99980109930038452,
        -0.99956822395324707,
        -0.9999077320098877
      ],
      "type": "VEC3"
    },
    {
      "bufferView": 0,
      "byteOffset": 2814768,
      "componentType": 5125,
      "count": 98298,
      "max": [
        65531
      ],
      "min": [
        0
      ],
      "type": "SCALAR"
    },
    {
      "bufferView": 1,
      "byteOffset": 13023840,
      "componentType": 5126,
      "count": 57340,
      "max": [
        0.30656999349594116,
        1.3536900281906128,
        0.47510999441146851
      ],
      "min": [
        -1.4010100364685059,
        0.28808000683784485,
        -1.4223899841308594
      ],
      "type": "VEC3"
    },
    {
      "bufferView": 1,
      "byteOffset": 13711920,
      "componentType": 5126,
      "count": 57340,
      "max": [
        0.99898165464401245,
        0.99964475631713867,
        0.9992411732673645
      ],
      "min": [
        -0.99975323677062988,
        -0.99940508604049683,
        -0.99965560436248779
      ],
      "type": "VEC3"
    },
    {
      "bufferView": 0,
      "byteOffset": 3207960,
      "componentType": 5125,
      "count": 86010,
      "max": [
        57339
      ],
      "min": [
        0
      ],
      "type": "SCALAR"
    },
    {
      "bufferView": 1,
      "byteOffset": 14400000,
      "componentType": 5126,
      "count": 42036,
      "max": [
        0.49744999408721924,
        1.6263200044631958,
        1.0347000360488892
      ],
      "min": [
        -1.4346499443054199,
        -0.066679999232292175,
        -1.4597100019454956
      ],
      "type": "VEC3"
    },
    {
      "bufferView": 1,
      "byteOffset": 14904432,
      "componentType": 5126,
      "count": 42036,
      "max": [
        0.99977272748947144,
        0.99975490570068359,
        0.99994176626205444
      ],
      "min": [
        -0.99978524446487427,
        -0.99992847442626953,
        -0.99984133243560791
      ],
      "type": "VEC3"
    },
    {
      "bufferView": 0,
      "byteOffset": 3552000,
      "componentType": 5125,
      "count": 252204,
      "max": [
        42035
      ],
      "min": [
        0
      ],
      "type": "SCALAR"
    },
    {
      "bufferView": 1,
      "byteOffset": 15408864,
      "componentType": 5126,
      "count": 4,
      "max": [
        1,
        1,
        0
      ],
      "min": [
        -1,
        -1,
        0
      ],
      "type": "VEC3"
    },
    {
      "bufferView": 1,
      "byteOffset": 15408912,
      "componentType": 5126,
      "count": 4,
      "max": [
        0,
        0,
        1
      ],
      "min": [
        0,
        0,
        1
      ],
      "type": "VEC3"
    },
    {
      "bufferView": 0,
      "byteOffset": 4560816,
      "componentType": 5125,
      "count": 6,
      "max": [
        3
      ],
      "min": [
        0
      ],
      "type": "SCALAR"
    }
  ],
  "asset": {
    "extras": {
      "author": "nsrossy (https://sketchfab.com/nsrossy)",
      "license": "CC-BY-4.0 (http://creativecommons.org/licenses/by/4.0/)",
      "source": "https://sketchfab.com/models/10e08d36d61543d7860f3847038d56a1",
      "title": "Realistic looking Mango Tree"
    },
    "generator": "Sketchfab-3.18.7",
    "version": "2.0"
  },
  "bufferViews": [
    {
      "buffer": 0,
      "byteLength": 4560840,
      "byteOffset": 0,
      "name": "floatBufferViews",
      "target": 34963
    },
    {
      "buffer": 0,
      "byteLength": 15408960,
      "byteOffset": 4560840,
      "byteStride": 12,
      "name": "floatBufferViews",
      "target": 34962
    }
  ],
  "buffers": [
    {
      "byteLength": 19969800,
      "uri": "scene.bin"
    }
  ],
  "materials": [
    {
      "alphaMode": "BLEND",
      "doubleSided": true,
      "emissiveFactor": [
        0,
        0,
        0
      ],
      "name": "Steam_color",
      "pbrMetallicRoughness": {
        "baseColorFactor": [
          0.34168976550000002,
          0.4671999812,
          0.1067806333,
          0.5267175436
        ],
        "metallicFactor": 0,
        "roughnessFactor": 0.59999999999999998
      }
    },
    {
      "doubleSided": true,
      "emissiveFactor": [
        0,
        0,
        0
      ],
      "name": "Leaf",
      "pbrMetallicRoughness": {
        "baseColorFactor": [
          0.038856431800000001,
          0.29569187759999999,
          0.062284361599999997,
          1
        ],
        "metallicFactor": 0,
        "roughnessFactor": 0.59999999999999998
      }
    },
    {
      "doubleSided": true,
      "emissiveFactor": [
        0,
        0,
        0
      ],
      "name": "Material.001",
      "pbrMetallicRoughness": {
        "baseColorFactor": [
          0.1959877163,
          0.1127923056,
          0.037516888200000001,
          1
        ],
        "metallicFactor": 0,
        "roughnessFactor": 0.59999999999999998
      }
    }
  ],
  "meshes": [
    {
      "name": "Mango Branch_0",
      "primitives": [
        {
          "attributes": {
            "NORMAL": 1,
            "POSITION": 0
          },
          "indices": 2,
          "material": 1,
          "mode": 4
        }
      ]
    },
    {
      "name": "Mango Branch_0",
      "primitives": [
        {
          "attributes": {
            "NORMAL": 4,
            "POSITION": 3
          },
          "indices": 5,
          "material": 1,
          "mode": 4
        }
      ]
    },
    {
      "name": "Mango Branch_0",
      "primitives": [
        {
          "attributes": {
            "NORMAL": 7,
            "POSITION": 6
          },
          "indices": 8,
          "material": 1,
          "mode": 4
        }
      ]
    },
    {
      "name": "Mango Branch_0",
      "primitives": [
        {
          "attributes": {
            "NORMAL": 10,
            "POSITION": 9
          },
          "indices": 11,
          "material": 1,
          "mode": 4
        }
      ]
    },
    {
      "name": "Mango Branch_1",
      "primitives": [
        {
          "attributes": {
            "NORMAL": 13,
            "POSITION": 12
          },
          "indices": 14,
          "material": 0,
          "mode": 4
        }
      ]
    },
    {
      "name": "Mango Branch_1",
      "primitives": [
        {
          "attributes": {
            "NORMAL": 16,
            "POSITION": 15
          },
          "indices": 17,
          "material": 0,
          "mode": 4
        }
      ]
    },
    {
      "name": "Mango Branch_1",
      "primitives": [
        {
          "attributes": {
            "NORMAL": 19,
            "POSITION": 18
          },
          "indices": 20,
          "material": 0,
          "mode": 4
        }
      ]
    },
    {
      "name": "Mango Branch_1",
      "primitives": [
        {
          "attributes": {
            "NORMAL": 22,
            "POSITION": 21
          },
          "indices": 23,
          "material": 0,
          "mode": 4
        }
      ]
    },
    {
      "name": "Mango Branch_1",
      "primitives": [
        {
          "attributes": {
            "NORMAL": 25,
            "POSITION": 24
          },
          "indices": 26,
          "material": 0,
          "mode": 4
        }
      ]
    },
    {
      "name": "Mango Branch_1",
      "primitives": [
        {
          "attributes": {
            "NORMAL": 28,
            "POSITION": 27
          },
          "indices": 29,
          "material": 0,
          "mode": 4
        }
      ]
    },
    {
      "name": "Mango Branch_2",
      "primitives": [
        {
          "attributes": {
            "NORMAL": 31,
            "POSITION": 30
          },
          "indices": 32,
          "material": 2,
          "mode": 4
        }
      ]
    },
    {
      "name": "Plane_0",
      "primitives": [
        {
          "attributes": {
            "NORMAL": 34,
            "POSITION": 33
          },
          "indices": 35,
          "material": 0,
          "mode": 4
        }
      ]
    }
  ],
  "nodes": [
    {
      "children": [
        1
      ],
      "name": "RootNode (gltf orientation matrix)",
      "rotation": [
        -0.70710678118654746,
        -0,
        -0,
        0.70710678118654757
      ]
    },
    {
      "children": [
        2
      ],
      "name": "RootNode (model correction matrix)"
    },
    {
      "children": [
        3,
        15
      ],
      "name": "Root"
    },
    {
      "children": [
        4,
        5,
        6,
        7,
        8,
        9,
        10,
        11,
        12,
        13,
        14
      ],
      "matrix": [
        -0.83501000000000003,
        -0.85106000000000004,
        -0.56601000000000001,
        0,
        -0.46712999999999999,
        -0.33232000000000012,
        1.1888100000000001,
        0,
        -0.90910000000000002,
        0.95245999999999997,
        -0.090970000000000023,
        0,
        0,
        0,
        0,
        1
      ],
      "name": "Mango Branch"
    },
    {
      "mesh": 0,
      "name": "Mango Branch_0"
    },
    {
      "mesh": 1,
      "name": "Mango Branch_0"
    },
    {
      "mesh": 2,
      "name": "Mango Branch_0"
    },
    {
      "mesh": 3,
      "name": "Mango Branch_0"
    },
    {
      "mesh": 4,
      "name": "Mango Branch_1"
    },
    {
      "mesh": 5,
      "name": "Mango Branch_1"
    },
    {
      "mesh": 6,
      "name": "Mango Branch_1"
    },
    {
      "mesh": 7,
      "name": "Mango Branch_1"
    },
    {
      "mesh": 8,
      "name": "Mango Branch_1"
    },
    {
      "mesh": 9,
      "name": "Mango Branch_1"
    },
    {
      "mesh": 10,
      "name": "Mango Branch_2"
    },
    {
      "children": [
        16
      ],
      "matrix": [
        0.89936000000000005,
        0,
        0,
        0,
        0,
        0.89936000000000005,
        0,
        0,
        0,
        0,
        0.89936000000000005,
        0,
        0,
        0,
        0,
        1
      ],
      "name": "Plane"
    },
    {
      "mesh": 11,
      "name": "Plane_0"
    }
  ],
  "scene": 0,
  "scenes": [
    {
      "name": "OSG_Scene",
      "nodes": [
        0
      ]
    }
  ]
}

