{
  "accessors": [
    {
      "bufferView": 2,
      "componentType": 5126,
      "count": 1257,
      "max": [
        74.97293090820313,
        16.338037490844727,
        229.8188934326172
      ],
      "min": [
        -74.97291564941406,
        -1.0680608749389648,
        -229.8189239501953
      ],
      "type": "VEC3"
    },
    {
      "bufferView": 2,
      "byteOffset": 15084,
      "componentType": 5126,
      "count": 1257,
      "max": [
        0.2148311287164688,
        1.0,
        0.9992956519126892
      ],
      "min": [
        -0.20759139955043793,
        -0.01947765424847603,
        -0.9984784722328186
      ],
      "type": "VEC3"
    },
    {
      "bufferView": 1,
      "componentType": 5126,
      "count": 1257,
      "max": [
        0.9987031817436218,
        0.921855092048645
      ],
      "min": [
        0.006451517343521118,
        0.003030717372894287
      ],
      "type": "VEC2"
    },
    {
      "bufferView": 0,
      "componentType": 5125,
      "count": 2160,
      "type": "SCALAR"
    },
    {
      "bufferView": 2,
      "byteOffset": 30168,
      "componentType": 5126,
      "count": 1919,
      "max": [
        74.97293090820313,
        16.338037490844727,
        230.1701202392578
      ],
      "min": [
        -74.97291564941406,
        -6.049234390258789,
        -230.17015075683594
      ],
      "type": "VEC3"
    },
    {
      "bufferView": 2,
      "byteOffset": 53196,
      "componentType": 5126,
      "count": 1919,
      "max": [
        0.9995510578155518,
        1.0,
        0.9974324107170105
      ],
      "min": [
        -0.9990959763526917,
        -0.21304699778556824,
        -0.9984784722328186
      ],
      "type": "VEC3"
    },
    {
      "bufferView": 1,
      "byteOffset": 10056,
      "componentType": 5126,
      "count": 1919,
      "max": [
        0.9999948740005493,
        0.9984767436981201
      ],
      "min": [
        0.004804164171218872,
        0.004210195504128933
      ],
      "type": "VEC2"
    },
    {
      "bufferView": 0,
      "byteOffset": 8640,
      "componentType": 5125,
      "count": 3024,
      "type": "SCALAR"
    },
    {
      "bufferView": 2,
      "byteOffset": 76224,
      "componentType": 5126,
      "count": 769,
      "max": [
        12.276554107666016,
        68.86602783203125,
        12.330101013183594
      ],
      "min": [
        -14.77115249633789,
        -0.31212317943573,
        -14.968377113342285
      ],
      "type": "VEC3"
    },
    {
      "bufferView": 2,
      "byteOffset": 85452,
      "componentType": 5126,
      "count": 769,
      "max": [
        0.9994713664054871,
        1.0,
        0.996103823184967
      ],
      "min": [
        -0.9994711875915527,
        -1.0,
        -0.9995604753494263
      ],
      "type": "VEC3"
    },
    {
      "bufferView": 1,
      "byteOffset": 25408,
      "componentType": 5126,
      "count": 769,
      "max": [
        0.9971731901168823,
        0.6335800886154175
      ],
      "min": [
        0.46847620606422424,
        0.006608247756958008
      ],
      "type": "VEC2"
    },
    {
      "bufferView": 0,
      "byteOffset": 20736,
      "componentType": 5125,
      "count": 1143,
      "type": "SCALAR"
    },
    {
      "bufferView": 2,
      "byteOffset": 94680,
      "componentType": 5126,
      "count": 1062,
      "max": [
        39.93885040283203,
        95.9825668334961,
        37.52864074707031
      ],
      "min": [
        -39.0163459777832,
        -0.31212317943573,
        -36.30116653442383
      ],
      "type": "VEC3"
    },
    {
      "bufferView": 2,
      "byteOffset": 107424,
      "componentType": 5126,
      "count": 1062,
      "max": [
        0.9984026551246643,
        1.0,
        1.0
      ],
      "min": [
        -1.0,
        -0.9998807907104492,
        -0.9995604753494263
      ],
      "type": "VEC3"
    },
    {
      "bufferView": 1,
      "byteOffset": 31560,
      "componentType": 5126,
      "count": 1062,
      "max": [
        0.9971731901168823,
        0.7087793350219727
      ],
      "min": [
        0.4611913561820984,
        0.4657491147518158
      ],
      "type": "VEC2"
    },
    {
      "bufferView": 0,
      "byteOffset": 25308,
      "componentType": 5125,
      "count": 1602,
      "type": "SCALAR"
    },
    {
      "bufferView": 2,
      "byteOffset": 120168,
      "componentType": 5126,
      "count": 780,
      "max": [
        21.736642837524414,
        83.5111083984375,
        21.740896224975586
      ],
      "min": [
        -21.427335739135742,
        0.14502084255218506,
        -21.740896224975586
      ],
      "type": "VEC3"
    },
    {
      "bufferView": 2,
      "byteOffset": 129528,
      "componentType": 5126,
      "count": 780,
      "max": [
        0.9782108068466187,
        1.0,
        0.9882640838623047
      ],
      "min": [
        -0.9994711875915527,
        -1.0,
        -0.9961036443710327
      ],
      "type": "VEC3"
    },
    {
      "bufferView": 1,
      "byteOffset": 40056,
      "componentType": 5126,
      "count": 780,
      "max": [
        0.9603645205497742,
        0.7118078470230103
      ],
      "min": [
        0.45641398429870605,
        0.46199357509613037
      ],
      "type": "VEC2"
    },
    {
      "bufferView": 0,
      "byteOffset": 31716,
      "componentType": 5125,
      "count": 1131,
      "type": "SCALAR"
    },
    {
      "bufferView": 2,
      "byteOffset": 138888,
      "componentType": 5126,
      "count": 1074,
      "max": [
        11.229155540466309,
        50.216129302978516,
        12.431893348693848
      ],
      "min": [
        -11.229155540466309,
        -9.5367431640625e-06,
        -11.848657608032227
      ],
      "type": "VEC3"
    },
    {
      "bufferView": 2,
      "byteOffset": 151776,
      "componentType": 5126,
      "count": 1074,
      "max": [
        0.9989613890647888,
        1.0,
        0.9957556128501892
      ],
      "min": [
        -1.0,
        -0.9996052384376526,
        -1.0
      ],
      "type": "VEC3"
    },
    {
      "bufferView": 1,
      "byteOffset": 46296,
      "componentType": 5126,
      "count": 1074,
      "max": [
        0.9986244440078735,
        0.8341637849807739
      ],
      "min": [
        0.8911283612251282,
        0.6960245966911316
      ],
      "type": "VEC2"
    },
    {
      "bufferView": 0,
      "byteOffset": 36240,
      "componentType": 5125,
      "count": 1635,
      "type": "SCALAR"
    },
    {
      "bufferView": 2,
      "byteOffset": 164664,
      "componentType": 5126,
      "count": 801,
      "max": [
        11.229155540466309,
        18.08203125,
        12.431893348693848
      ],
      "min": [
        -11.229155540466309,
        -1.993439582292922e-06,
        -11.848657608032227
      ],
      "type": "VEC3"
    },
    {
      "bufferView": 2,
      "byteOffset": 174276,
      "componentType": 5126,
      "count": 801,
      "max": [
        0.9988868236541748,
        1.0,
        0.9880421757698059
      ],
      "min": [
        -1.0,
        -0.998988926410675,
        -1.0
      ],
      "type": "VEC3"
    },
    {
      "bufferView": 1,
      "byteOffset": 54888,
      "componentType": 5126,
      "count": 801,
      "max": [
        0.9986244440078735,
        0.8341637849807739
      ],
      "min": [
        0.8911283612251282,
        0.6960245966911316
      ],
      "type": "VEC2"
    },
    {
      "bufferView": 0,
      "byteOffset": 42780,
      "componentType": 5125,
      "count": 1215,
      "type": "SCALAR"
    }
  ],
  "asset": {
    "extras": {
      "author": "dragonsnap (https://sketchfab.com/dragon-snap)",
      "license": "CC-BY-4.0 (http://creativecommons.org/licenses/by/4.0/)",
      "source": "https://sketchfab.com/3d-models/low-poly-forest-assets-50b0ffe6ea8844929ca8622384752299",
      "title": "Low poly forest assets"
    },
    "generator": "Sketchfab-11.16.0",
    "version": "2.0"
  },
  "bufferViews": [
    {
      "buffer": 0,
      "byteLength": 47640,
      "name": "floatBufferViews",
      "target": 34963
    },
    {
      "buffer": 0,
      "byteLength": 61296,
      "byteOffset": 47640,
      "byteStride": 8,
      "name": "floatBufferViews",
      "target": 34962
    },
    {
      "buffer": 0,
      "byteLength": 183888,
      "byteOffset": 108936,
      "byteStride": 12,
      "name": "floatBufferViews",
      "target": 34962
    }
  ],
  "buffers": [
    {
      "byteLength": 292824,
      "uri": "scene.bin"
    }
  ],
  "images": [
    {
      "uri": "textures/lambert1_baseColor.png"
    }
  ],
  "materials": [
    {
      "doubleSided": true,
      "name": "lambert1",
      "pbrMetallicRoughness": {
        "baseColorTexture": {
          "index": 0
        },
        "metallicFactor": 0.0,
        "roughnessFactor": 0.6
      }
    }
  ],
  "meshes": [
    {
      "name": "Ground_lambert1_0",
      "primitives": [
        {
          "attributes": {
            "NORMAL": 1,
            "POSITION": 0,
            "TEXCOORD_0": 2
          },
          "indices": 3,
          "material": 0,
          "mode": 4
        }
      ]
    },
    {
      "name": "River_lambert1_0",
      "primitives": [
        {
          "attributes": {
            "NORMAL": 5,
            "POSITION": 4,
            "TEXCOORD_0": 6
          },
          "indices": 7,
          "material": 0,
          "mode": 4
        }
      ]
    },
    {
      "name": "Log_lambert1_0",
      "primitives": [
        {
          "attributes": {
            "NORMAL": 9,
            "POSITION": 8,
            "TEXCOORD_0": 10
          },
          "indices": 11,
          "material": 0,
          "mode": 4
        }
      ]
    },
    {
      "name": "Tree_lambert1_0",
      "primitives": [
        {
          "attributes": {
            "NORMAL": 13,
            "POSITION": 12,
            "TEXCOORD_0": 14
          },
          "indices": 15,
          "material": 0,
          "mode": 4
        }
      ]
    },
    {
      "name": "Tree2_lambert1_0",
      "primitives": [
        {
          "attributes": {
            "NORMAL": 17,
            "POSITION": 16,
            "TEXCOORD_0": 18
          },
          "indices": 19,
          "material": 0,
          "mode": 4
        }
      ]
    },
    {
      "name": "Tree3_lambert1_0",
      "primitives": [
        {
          "attributes": {
            "NORMAL": 21,
            "POSITION": 20,
            "TEXCOORD_0": 22
          },
          "indices": 23,
          "material": 0,
          "mode": 4
        }
      ]
    },
    {
      "name": "Bush_lambert1_0",
      "primitives": [
        {
          "attributes": {
            "NORMAL": 25,
            "POSITION": 24,
            "TEXCOORD_0": 26
          },
          "indices": 27,
          "material": 0,
          "mode": 4
        }
      ]
    }
  ],
  "nodes": [
    {
      "children": [
        1
      ],
      "matrix": [
        1.0,
        0.0,
        0.0,
        0.0,
        0.0,
        2.220446049250313e-16,
        -1.0,
        0.0,
        0.0,
        1.0,
        2.220446049250313e-16,
        0.0,
        0.0,
        0.0,
        0.0,
        1.0
      ],
      "name": "Sketchfab_model"
    },
    {
      "children": [
        2
      ],
      "matrix": [
        1.0,
        0.0,
        0.0,
        0.0,
        0.0,
        0.0,
        1.0,
        0.0,
        0.0,
        -1.0,
        0.0,
        0.0,
        0.0,
        0.0,
        0.0,
        1.0
      ],
      "name": "0ee56b47bd554ed9836f59b97740202e.fbx"
    },
    {
      "children": [
        3,
        5,
        7,
        9,
        11,
        13,
        15
      ],
      "name": "RootNode"
    },
    {
      "children": [
        4
      ],
      "name": "Ground"
    },
    {
      "mesh": 0,
      "name": "Ground_lambert1_0"
    },
    {
      "children": [
        6
      ],
      "matrix": [
        1.0,
        0.0,
        0.0,
        0.0,
        0.0,
        1.0,
        0.0,
        0.0,
        0.0,
        0.0,
        1.0,
        0.0,
        169.84413146972656,
        0.0,
        0.0,
        1.0
      ],
      "name": "River"
    },
    {
      "mesh": 1,
      "name": "River_lambert1_0"
    },
    {
      "children": [
        8
      ],
      "matrix": [
        1.0,
        0.0,
        0.0,
        0.0,
        0.0,
        1.0,
        0.0,
        0.0,
        0.0,
        0.0,
        1.0,
        0.0,
        -110.23103332519531,
        0.0,
        56.09446334838867,
        1.0
      ],
      "name": "Log"
    },
    {
      "mesh": 2,
      "name": "Log_lambert1_0"
    },
    {
      "children": [
        10
      ],
      "matrix": [
        1.0,
        0.0,
        0.0,
        0.0,
        0.0,
        1.0,
        0.0,
        0.0,
        0.0,
        0.0,
        1.0,
        0.0,
        -106.16156005859375,
        0.0,
        -118.81611633300781,
        1.0
      ],
      "name": "Tree"
    },
    {
      "mesh": 3,
      "name": "Tree_lambert1_0"
    },
    {
      "children": [
        12
      ],
      "matrix": [
        1.0,
        0.0,
        0.0,
        0.0,
        0.0,
        1.0,
        0.0,
        0.0,
        0.0,
        0.0,
        1.0,
        0.0,
        -110.16666412353516,
        0.0,
        -54.98961639404297,
        1.0
      ],
      "name": "Tree2"
    },
    {
      "mesh": 4,
      "name": "Tree2_lambert1_0"
    },
    {
      "children": [
        14
      ],
      "matrix": [
        1.0,
        0.0,
        0.0,
        0.0,
        0.0,
        1.0,
        0.0,
        0.0,
        0.0,
        0.0,
        1.0,
        0.0,
        -109.09375762939453,
        0.0,
        -14.6378812789917,
        1.0
      ],
      "name": "Tree3"
    },
    {
      "mesh": 5,
      "name": "Tree3_lambert1_0"
    },
    {
      "children": [
        16
      ],
      "matrix": [
        1.0,
        0.0,
        0.0,
        0.0,
        0.0,
        1.0,
        0.0,
        0.0,
        0.0,
        0.0,
        1.0,
        0.0,
        -110.08777618408203,
        0.0,
        24.08951187133789,
        1.0
      ],
      "name": "Bush"
    },
    {
      "mesh": 6,
      "name": "Bush_lambert1_0"
    }
  ],
  "samplers": [
    {
      "magFilter": 9729,
      "minFilter": 9987,
      "wrapS": 10497,
      "wrapT": 10497
    }
  ],
  "scene": 0,
  "scenes": [
    {
      "name": "Sketchfab_Scene",
      "nodes": [
        0
      ]
    }
  ],
  "textures": [
    {
      "sampler": 0,
      "source": 0
    }
  ]
}
