{
  "accessors": [
    {
      "bufferView": 2,
      "componentType": 5126,
      "count": 65532,
      "max": [
        0.5417249798774719,
        2.8020849227905273,
        2.4905240535736084
      ],
      "min": [
        -4.650457859039307,
        -2.5243380069732666,
        -2.8014988899230957
      ],
      "type": "VEC3"
    },
    {
      "bufferView": 2,
      "byteOffset": 786384,
      "componentType": 5126,
      "count": 65532,
      "max": [
        0.9999723434448242,
        0.9999822974205017,
        0.9999892711639404
      ],
      "min": [
        -0.9998674392700195,
        -0.9997538328170776,
        -0.9999885559082031
      ],
      "type": "VEC3"
    },
    {
      "bufferView": 1,
      "componentType": 5126,
      "count": 65532,
      "max": [
        0.9984520077705383,
        1.0000250339508057
      ],
      "min": [
        7.599999662488699e-05,
        0.02637599967420101
      ],
      "type": "VEC2"
    },
    {
      "bufferView": 0,
      "componentType": 5125,
      "count": 264483,
      "type": "SCALAR"
    },
    {
      "bufferView": 2,
      "byteOffset": 1572768,
      "componentType": 5126,
      "count": 65532,
      "max": [
        2.231627941131592,
        2.9461159706115723,
        2.230940103530884
      ],
      "min": [
        -3.983138084411621,
        0.012001999653875828,
        -2.6828010082244873
      ],
      "type": "VEC3"
    },
    {
      "bufferView": 2,
      "byteOffset": 2359152,
      "componentType": 5126,
      "count": 65532,
      "max": [
        0.9998857378959656,
        0.9999822974205017,
        0.9999966621398926
      ],
      "min": [
        -0.999965250492096,
        -0.9998661875724792,
        -0.999999463558197
      ],
      "type": "VEC3"
    },
    {
      "bufferView": 1,
      "byteOffset": 524256,
      "componentType": 5126,
      "count": 65532,
      "max": [
        0.9980490207672119,
        0.9999939799308777
      ],
      "min": [
        0.002609000075608492,
        0.0036299999337643385
      ],
      "type": "VEC2"
    },
    {
      "bufferView": 0,
      "byteOffset": 1057932,
      "componentType": 5125,
      "count": 274308,
      "type": "SCALAR"
    },
    {
      "bufferView": 2,
      "byteOffset": 3145536,
      "componentType": 5126,
      "count": 65532,
      "max": [
        2.9750919342041016,
        2.567223072052002,
        2.4719910621643066
      ],
      "min": [
        -3.6329269409179688,
        -1.4387439489364624,
        -2.5006020069122314
      ],
      "type": "VEC3"
    },
    {
      "bufferView": 2,
      "byteOffset": 3931920,
      "componentType": 5126,
      "count": 65532,
      "max": [
        0.9999852180480957,
        0.9999999403953552,
        0.9999815821647644
      ],
      "min": [
        -0.9999826550483704,
        -0.9998531937599182,
        -0.9999764561653137
      ],
      "type": "VEC3"
    },
    {
      "bufferView": 1,
      "byteOffset": 1048512,
      "componentType": 5126,
      "count": 65532,
      "max": [
        0.9981129765510559,
        1.000182032585144
      ],
      "min": [
        0.00043399998685345054,
        0.0035929998848587275
      ],
      "type": "VEC2"
    },
    {
      "bufferView": 0,
      "byteOffset": 2155164,
      "componentType": 5125,
      "count": 259485,
      "type": "SCALAR"
    },
    {
      "bufferView": 2,
      "byteOffset": 4718304,
      "componentType": 5126,
      "count": 65533,
      "max": [
        2.9750919342041016,
        2.672658920288086,
        2.6703100204467773
      ],
      "min": [
        -4.540614128112793,
        -2.5648789405822754,
        -2.8090860843658447
      ],
      "type": "VEC3"
    },
    {
      "bufferView": 2,
      "byteOffset": 5504700,
      "componentType": 5126,
      "count": 65533,
      "max": [
        0.9999995231628418,
        0.9999207854270935,
        0.999952495098114
      ],
      "min": [
        -0.9999065399169922,
        -0.9999154210090637,
        -0.9999760389328003
      ],
      "type": "VEC3"
    },
    {
      "bufferView": 1,
      "byteOffset": 1572768,
      "componentType": 5126,
      "count": 65533,
      "max": [
        0.9996129870414734,
        1.0154919624328613
      ],
      "min": [
        0.00016199999663513154,
        0.0024240000639110804
      ],
      "type": "VEC2"
    },
    {
      "bufferView": 0,
      "byteOffset": 3193104,
      "componentType": 5125,
      "count": 223515,
      "type": "SCALAR"
    },
    {
      "bufferView": 2,
      "byteOffset": 6291096,
      "componentType": 5126,
      "count": 65532,
      "max": [
        2.9065980911254883,
        2.2884020805358887,
        2.5654261112213135
      ],
      "min": [
        -3.541748046875,
        -1.8614530563354492,
        -2.440006971359253
      ],
      "type": "VEC3"
    },
    {
      "bufferView": 2,
      "byteOffset": 7077480,
      "componentType": 5126,
      "count": 65532,
      "max": [
        0.9999986290931702,
        0.9999793767929077,
        0.9999947547912598
      ],
      "min": [
        -0.9994532465934753,
        -0.9999668002128601,
        -0.9999507069587708
      ],
      "type": "VEC3"
    },
    {
      "bufferView": 1,
      "byteOffset": 2097032,
      "componentType": 5126,
      "count": 65532,
      "max": [
        0.9984430074691772,
        0.9994840025901794
      ],
      "min": [
        0.0009929999941959977,
        0.00355900009162724
      ],
      "type": "VEC2"
    },
    {
      "bufferView": 0,
      "byteOffset": 4087164,
      "componentType": 5125,
      "count": 246978,
      "type": "SCALAR"
    },
    {
      "bufferView": 2,
      "byteOffset": 7863864,
      "componentType": 5126,
      "count": 18442,
      "max": [
        2.0720880031585693,
        2.3481950759887695,
        2.303692102432251
      ],
      "min": [
        -3.5280239582061768,
        -0.40030598640441895,
        -2.4870400428771973
      ],
      "type": "VEC3"
    },
    {
      "bufferView": 2,
      "byteOffset": 8085168,
      "componentType": 5126,
      "count": 18442,
      "max": [
        0.9999847412109375,
        0.999664843082428,
        0.9999966621398926
      ],
      "min": [
        -0.9998999834060669,
        -0.9995911717414856,
        -0.9998440146446228
      ],
      "type": "VEC3"
    },
    {
      "bufferView": 1,
      "byteOffset": 2621288,
      "componentType": 5126,
      "count": 18442,
      "max": [
        0.9986839890480042,
        0.9993410110473633
      ],
      "min": [
        0.0031659998930990696,
        0.012413999997079372
      ],
      "type": "VEC2"
    },
    {
      "bufferView": 0,
      "byteOffset": 5075076,
      "componentType": 5125,
      "count": 45798,
      "type": "SCALAR"
    }
  ],
  "asset": {
    "extras": {
      "author": "ssteidle (https://sketchfab.com/ssteidle)",
      "license": "CC-BY-4.0 (http://creativecommons.org/licenses/by/4.0/)",
      "source": "https://sketchfab.com/3d-models/broken-pine-tree-stump-ffe85a18e52249e5a0fc746baf6570b0",
      "title": "Broken Pine Tree Stump"
    },
    "generator": "Sketchfab-11.8.0",
    "version": "2.0"
  },
  "bufferViews": [
    {
      "buffer": 0,
      "byteLength": 5258268,
      "name": "floatBufferViews",
      "target": 34963
    },
    {
      "buffer": 0,
      "byteLength": 2768824,
      "byteOffset": 5258268,
      "byteStride": 8,
      "name": "floatBufferViews",
      "target": 34962
    },
    {
      "buffer": 0,
      "byteLength": 8306472,
      "byteOffset": 8027092,
      "byteStride": 12,
      "name": "floatBufferViews",
      "target": 34962
    }
  ],
  "buffers": [
    {
      "byteLength": 16333564,
      "uri": "scene.bin"
    }
  ],
  "images": [
    {
      "uri": "textures/pine_log_baseColor.jpeg"
    }
  ],
  "materials": [
    {
      "doubleSided": true,
      "name": "pine_log",
      "pbrMetallicRoughness": {
        "baseColorTexture": {
          "index": 0
        },
        "metallicFactor": 0.0
      }
    }
  ],
  "meshes": [
    {
      "name": "Object_0",
      "primitives": [
        {
          "attributes": {
            "NORMAL": 1,
            "POSITION": 0,
            "TEXCOORD_0": 2
          },
          "indices": 3,
          "material": 0,
          "mode": 4
        }
      ]
    },
    {
      "name": "Object_1",
      "primitives": [
        {
          "attributes": {
            "NORMAL": 5,
            "POSITION": 4,
            "TEXCOORD_0": 6
          },
          "indices": 7,
          "material": 0,
          "mode": 4
        }
      ]
    },
    {
      "name": "Object_2",
      "primitives": [
        {
          "attributes": {
            "NORMAL": 9,
            "POSITION": 8,
            "TEXCOORD_0": 10
          },
          "indices": 11,
          "material": 0,
          "mode": 4
        }
      ]
    },
    {
      "name": "Object_3",
      "primitives": [
        {
          "attributes": {
            "NORMAL": 13,
            "POSITION": 12,
            "TEXCOORD_0": 14
          },
          "indices": 15,
          "material": 0,
          "mode": 4
        }
      ]
    },
    {
      "name": "Object_4",
      "primitives": [
        {
          "attributes": {
            "NORMAL": 17,
            "POSITION": 16,
            "TEXCOORD_0": 18
          },
          "indices": 19,
          "material": 0,
          "mode": 4
        }
      ]
    },
    {
      "name": "Object_5",
      "primitives": [
        {
          "attributes": {
            "NORMAL": 21,
            "POSITION": 20,
            "TEXCOORD_0": 22
          },
          "indices": 23,
          "material": 0,
          "mode": 4
        }
      ]
    }
  ],
  "nodes": [
    {
      "children": [
        1
      ],
      "matrix": [
        1.0,
        0.0,
        0.0,
        0.0,
        0.0,
        2.220446049250313e-16,
        -1.0,
        0.0,
        0.0,
        1.0,
        2.220446049250313e-16,
        0.0,
        0.0,
        0.0,
        0.0,
        1.0
      ],
      "name": "Sketchfab_model"
    },
    {
      "children": [
        2,
        3,
        4,
        5,
        6,
        7
      ],
      "name": "pine_log.obj.cleaner.materialmerger.gles"
    },
    {
      "mesh": 0,
      "name": "Object_2"
    },
    {
      "mesh": 1,
      "name": "Object_3"
    },
    {
      "mesh": 2,
      "name": "Object_4"
    },
    {
      "mesh": 3,
      "name": "Object_5"
    },
    {
      "mesh": 4,
      "name": "Object_6"
    },
    {
      "mesh": 5,
      "name": "Object_7"
    }
  ],
  "samplers": [
    {
      "magFilter": 9729,
      "minFilter": 9987,
      "wrapS": 10497,
      "wrapT": 10497
    }
  ],
  "scene": 0,
  "scenes": [
    {
      "name": "Sketchfab_Scene",
      "nodes": [
        0
      ]
    }
  ],
  "textures": [
    {
      "sampler": 0,
      "source": 0
    }
  ]
}
