{
  "accessors": [
    {
      "bufferView": 2,
      "componentType": 5126,
      "count": 23,
      "max": [
        0.20769999921321869,
        0.20658999681472778,
        4.9150199890136719
      ],
      "min": [
        -0.20769999921321869,
        -0.71279001235961914,
        -0.021469999104738235
      ],
      "type": "VEC3"
    },
    {
      "bufferView": 2,
      "byteOffset": 276,
      "componentType": 5126,
      "count": 23,
      "max": [
        0.99964606761932373,
        0.99153995513916016,
        0.20679670572280884
      ],
      "min": [
        -0.99964606761932373,
        -0.99704807996749878,
        -0.10404240339994431
      ],
      "type": "VEC3"
    },
    {
      "bufferView": 3,
      "componentType": 5126,
      "count": 23,
      "max": [
        0.99987173080444336,
        0.99583595991134644,
        0.20998466014862061,
        1
      ],
      "min": [
        -0.99996936321258545,
        -0.99310868978500366,
        -0.13258489966392517,
        1
      ],
      "type": "VEC4"
    },
    {
      "bufferView": 1,
      "componentType": 5126,
      "count": 23,
      "max": [
        0.85126000642776489,
        3.2988600730895996
      ],
      "min": [
        0.15628999471664429,
        -2.29830002784729
      ],
      "type": "VEC2"
    },
    {
      "bufferView": 0,
      "componentType": 5125,
      "count": 84,
      "max": [
        22
      ],
      "min": [
        0
      ],
      "type": "SCALAR"
    },
    {
      "bufferView": 2,
      "byteOffset": 552,
      "componentType": 5126,
      "count": 2200,
      "max": [
        1.6659599542617798,
        1.3248599767684937,
        8.2768001556396484
      ],
      "min": [
        -1.7931300401687622,
        -2.0828700065612793,
        1.8259799480438232
      ],
      "type": "VEC3"
    },
    {
      "bufferView": 2,
      "byteOffset": 26952,
      "componentType": 5126,
      "count": 2200,
      "max": [
        0.99963772296905518,
        0.99925535917282104,
        0.61679911613464355
      ],
      "min": [
        -0.99928367137908936,
        -0.9957384467124939,
        -0.99966871738433838
      ],
      "type": "VEC3"
    },
    {
      "bufferView": 3,
      "byteOffset": 368,
      "componentType": 5126,
      "count": 2200,
      "max": [
        0.99516010284423828,
        0.99976599216461182,
        0.98623120784759521,
        1
      ],
      "min": [
        -0.99837857484817505,
        -0.99979710578918457,
        -0.9852566123008728,
        1
      ],
      "type": "VEC4"
    },
    {
      "bufferView": 1,
      "byteOffset": 184,
      "componentType": 5126,
      "count": 2200,
      "max": [
        1,
        1
      ],
      "min": [
        0,
        0
      ],
      "type": "VEC2"
    },
    {
      "bufferView": 0,
      "byteOffset": 336,
      "componentType": 5125,
      "count": 3300,
      "max": [
        2199
      ],
      "min": [
        0
      ],
      "type": "SCALAR"
    }
  ],
  "asset": {
    "extras": {
      "author": "CookieNoir (https://sketchfab.com/hornushero)",
      "license": "CC-BY-4.0 (http://creativecommons.org/licenses/by/4.0/)",
      "source": "https://sketchfab.com/models/946d52b80d5b468ab682cc103e5f508e",
      "title": "Aspen"
    },
    "generator": "Sketchfab-3.19.2",
    "version": "2.0"
  },
  "bufferViews": [
    {
      "buffer": 0,
      "byteLength": 13536,
      "byteOffset": 0,
      "name": "floatBufferViews",
      "target": 34963
    },
    {
      "buffer": 0,
      "byteLength": 17784,
      "byteOffset": 13536,
      "byteStride": 8,
      "name": "floatBufferViews",
      "target": 34962
    },
    {
      "buffer": 0,
      "byteLength": 53352,
      "byteOffset": 31320,
      "byteStride": 12,
      "name": "floatBufferViews",
      "target": 34962
    },
    {
      "buffer": 0,
      "byteLength": 35568,
      "byteOffset": 84672,
      "byteStride": 16,
      "name": "floatBufferViews",
      "target": 34962
    }
  ],
  "buffers": [
    {
      "byteLength": 120240,
      "uri": "scene.bin"
    }
  ],
  "extensionsRequired": [
    "KHR_materials_pbrSpecularGlossiness"
  ],
  "extensionsUsed": [
    "KHR_materials_pbrSpecularGlossiness"
  ],
  "images": [
    {
      "uri": "textures/Material.002_diffuse.jpg"
    },
    {
      "uri": "textures/Material.002_normal.jpg"
    },
    {
      "uri": "textures/Material.001_diffuse.png"
    },
    {
      "uri": "textures/Material.001_specularGlossiness.png"
    },
    {
      "uri": "textures/Material.001_normal.png"
    }
  ],
  "materials": [
    {
      "doubleSided": true,
      "emissiveFactor": [
        0,
        0,
        0
      ],
      "extensions": {
        "KHR_materials_pbrSpecularGlossiness": {
          "diffuseFactor": [
            1,
            1,
            1,
            1
          ],
          "diffuseTexture": {
            "index": 0,
            "texCoord": 0
          },
          "glossinessFactor": 0.40000000000000002,
          "specularFactor": [
            0,
            0,
            0
          ]
        }
      },
      "name": "Material.002",
      "normalTexture": {
        "index": 1,
        "scale": 1,
        "texCoord": 0
      }
    },
    {
      "alphaCutoff": 0.69999999999999996,
      "alphaMode": "MASK",
      "doubleSided": true,
      "extensions": {
        "KHR_materials_pbrSpecularGlossiness": {
          "diffuseFactor": [
            1,
            1,
            1,
            1
          ],
          "diffuseTexture": {
            "index": 2,
            "texCoord": 0
          },
          "glossinessFactor": 0.5,
          "specularFactor": [
            0.5,
            0.5,
            0.5
          ],
          "specularGlossinessTexture": {
            "index": 3,
            "texCoord": 0
          }
        }
      },
      "name": "Material.001",
      "normalTexture": {
        "index": 4,
        "scale": 1,
        "texCoord": 0
      }
    }
  ],
  "meshes": [
    {
      "name": "tree.001_0",
      "primitives": [
        {
          "attributes": {
            "NORMAL": 1,
            "POSITION": 0,
            "TANGENT": 2,
            "TEXCOORD_0": 3
          },
          "indices": 4,
          "material": 0,
          "mode": 4
        }
      ]
    },
    {
      "name": "tree.001_1",
      "primitives": [
        {
          "attributes": {
            "NORMAL": 6,
            "POSITION": 5,
            "TANGENT": 7,
            "TEXCOORD_0": 8
          },
          "indices": 9,
          "material": 1,
          "mode": 4
        }
      ]
    }
  ],
  "nodes": [
    {
      "children": [
        1
      ],
      "name": "RootNode (gltf orientation matrix)",
      "rotation": [
        -0.70710678118654746,
        -0,
        -0,
        0.70710678118654757
      ]
    },
    {
      "children": [
        2
      ],
      "name": "RootNode (model correction matrix)"
    },
    {
      "children": [
        3,
        5
      ],
      "name": "Root"
    },
    {
      "children": [
        4
      ],
      "matrix": [
        -0.29086000000000006,
        0.95517000000000007,
        -0.05519000000000001,
        0,
        -0.77110000000000001,
        -0.19988000000000003,
        0.60452000000000006,
        0,
        0.56639000000000006,
        0.21839000000000003,
        0.7946700000000001,
        0,
        4.0762500000000008,
        1.00545,
        5.9038600000000008,
        1
      ],
      "name": "Lamp"
    },
    {
      "name": "Lamp"
    },
    {
      "children": [
        6,
        7
      ],
      "name": "tree.001"
    },
    {
      "mesh": 0,
      "name": "tree.001_0"
    },
    {
      "mesh": 1,
      "name": "tree.001_1"
    }
  ],
  "samplers": [
    {
      "magFilter": 9729,
      "minFilter": 9987,
      "wrapS": 10497,
      "wrapT": 10497
    }
  ],
  "scene": 0,
  "scenes": [
    {
      "name": "OSG_Scene",
      "nodes": [
        0
      ]
    }
  ],
  "textures": [
    {
      "sampler": 0,
      "source": 0
    },
    {
      "sampler": 0,
      "source": 1
    },
    {
      "sampler": 0,
      "source": 2
    },
    {
      "sampler": 0,
      "source": 3
    },
    {
      "sampler": 0,
      "source": 4
    }
  ]
}

